Coordinates
version=1
nRows=21
nColumns=12
inDegrees=yes

Units are S.I. units (second, meters, Newtons, ...)
Angles are in degrees

endheader
time	SC_y	SC_z	SC_x	AC_y	AC_z	AC_x	GH_y	GH_z	GH_yy	EL_x	PS_y
       0.0              -55.32         -4.114          51.75          39.07         -1.838          16.62         -111.2          -18.6          32.43          86.55          13.23
   0.02671              -55.32         -4.108          51.75          39.07          -1.84          16.62         -111.2          -18.6          32.43          86.55          13.24
   0.05342              -55.32         -4.101          51.74          39.07         -1.843          16.62         -111.1          -18.6          32.44          86.55          13.25
   0.08014              -55.31         -4.094          51.74          39.08         -1.845          16.62         -111.1          -18.6          32.44          86.56          13.26
    0.1068              -55.31         -4.087          51.73          39.08         -1.848          16.62         -111.1          -18.6          32.45          86.56          13.26
    0.1336               -55.3         -4.079          51.73          39.08         -1.851          16.62         -111.1          -18.6          32.46          86.56          13.27
    0.1603              -55.29          -4.07          51.72          39.09         -1.854          16.62         -111.0          -18.6          32.46          86.56          13.28
     0.187              -55.29         -4.061          51.72          39.09         -1.857          16.62         -111.0          -18.6          32.47          86.57          13.29
    0.2137              -55.28         -4.051          51.71           39.1         -1.861          16.62         -111.0          -18.6          32.48          86.57          13.31
    0.2404              -55.27         -4.041           51.7           39.1         -1.865          16.61         -110.9          -18.6          32.49          86.57          13.32
    0.2671              -55.26          -4.03          51.69          39.11         -1.869          16.61         -110.9          -18.6           32.5          86.58          13.33
    0.2938              -55.25         -4.018          51.69          39.11         -1.873          16.61         -110.8          -18.6          32.51          86.58          13.35
    0.3205              -55.25         -4.005          51.68          39.12         -1.878          16.61         -110.8          -18.6          32.52          86.58          13.36
    0.3473              -55.23          -3.99          51.67          39.12         -1.883          16.61         -110.7          -18.6          32.53          86.59          13.38
     0.374              -55.22         -3.975          51.66          39.13         -1.888          16.61         -110.7         -18.59          32.54          86.59           13.4
    0.4007              -55.21         -3.959          51.65          39.14         -1.894          16.61         -110.6         -18.59          32.56           86.6          13.41
    0.4274               -55.2         -3.941          51.63          39.15         -1.901           16.6         -110.6         -18.59          32.57           86.6          13.44
    0.4541              -55.18         -3.921          51.62          39.15         -1.908           16.6         -110.5         -18.59          32.59          86.61          13.46
    0.4808              -55.17           -3.9          51.61          39.16         -1.916           16.6         -110.4         -18.59           32.6          86.62          13.48
    0.5075              -55.15         -3.876          51.59          39.17         -1.924           16.6         -110.3         -18.59          32.62          86.62          13.51
    0.5342              -55.13         -3.851          51.57          39.19         -1.933          16.59         -110.2         -18.59          32.64          86.63          13.54
